<?xml version="1.0" encoding="utf-8"?>
<!-- Generator: Adobe Illustrator 24.1.2, SVG Export Plug-In . SVG Version: 6.00 Build 0)  -->
<svg version="1.1" id="Слой_1" xmlns="http://www.w3.org/2000/svg" xmlns:xlink="http://www.w3.org/1999/xlink" x="0px" y="0px"
	 viewBox="0 0 1080 1080" style="enable-background:new 0 0 1080 1080;" xml:space="preserve">
<style type="text/css">
	.st0{fill:#FFFFFF;}
</style>
<desc>Currency Exchange Streamline Icon: https://streamlinehq.com</desc>
<g>
	<path class="st0" d="M900,1080h-45c0-17.5,10.6-39,33.3-67.6c13.1-16.7,28-31.7,44.5-44.9H495c-210.9,0-382.5-171.6-382.5-382.5h45
		c0,186.1,151.4,337.5,337.5,337.5h437.8c-16.5-13.2-31.4-28.2-44.5-45C865.6,849,855,827.5,855,810h45c0,0.4,0.4,10.5,23.6,39.7
		c16.8,21.3,36.9,39.3,59.9,53.6c18.5,11.3,39.8,19.2,51.6,19.2v45c-11.8,0-33,8-51.8,19.3c-22.8,14.2-42.9,32.2-59.6,53.4
		C900.4,1069.5,900,1079.6,900,1080z M540,832.5c-161.3,0-292.5-131.2-292.5-292.5S378.7,247.5,540,247.5S832.5,378.7,832.5,540
		S701.3,832.5,540,832.5z M540,292.5c-136.5,0-247.5,111-247.5,247.5c0,136.5,111,247.5,247.5,247.5c136.5,0,247.5-111,247.5-247.5
		C787.5,403.5,676.5,292.5,540,292.5z M562.5,742.5h-45v-45H495c-37.2,0-67.5-30.3-67.5-67.5v-22.5h45V630
		c0,12.4,10.1,22.5,22.5,22.5h45V675v-22.5h45c12.4,0,22.5-10.1,22.5-22.5v-43.1c0-9.9-6.6-18.8-16.2-21.6l-115.2-33.6
		c-28.6-8.3-48.6-35-48.6-64.8V450c0-37.2,30.3-67.5,67.5-67.5h22.5v-45h45v45H585c37.2,0,67.5,30.3,67.5,67.5v22.5h-45V450
		c0-12.4-10.1-22.5-22.5-22.5h-90c-12.4,0-22.5,10.1-22.5,22.5v16.9c0,9.9,6.7,18.8,16.2,21.6l115.2,33.6
		c28.6,8.3,48.6,35,48.6,64.8V630c0,37.2-30.3,67.5-67.5,67.5h-22.5V742.5z M967.5,495h-45c0-186.1-151.4-337.5-337.5-337.5H147.2
		c16.5,13.2,31.4,28.2,44.6,45c22.7,28.5,33.2,50,33.2,67.5h-45c0-0.1-0.4-10.6-23.6-39.6c-16.8-21.3-36.9-39.4-59.9-53.6
		C78,165.5,56.8,157.5,45,157.5v-45c11.8,0,33-8,51.7-19.3C119.6,79,139.7,61,156.4,39.7C179.6,10.6,180,0.1,180,0h45
		c0,17.6-10.6,39-33.3,67.6c-13.1,16.7-28,31.7-44.5,44.9H585C795.9,112.5,967.5,284.1,967.5,495z"/>
</g>
</svg>
