<?xml version="1.0" encoding="utf-8"?>
<!-- Generator: Adobe Illustrator 24.1.2, SVG Export Plug-In . SVG Version: 6.00 Build 0)  -->
<svg version="1.1" id="Слой_1" xmlns="http://www.w3.org/2000/svg" xmlns:xlink="http://www.w3.org/1999/xlink" x="0px" y="0px"
	 viewBox="0 0 1080 290.9" style="enable-background:new 0 0 1080 290.9;" xml:space="preserve">
<style type="text/css">
	.st0{fill:#DFF7F8;}
	.st1{fill:url(#SVGID_1_);}
	.st2{fill:url(#SVGID_2_);}
</style>
<g>
	<polygon class="st0" points="226.9,281 46.7,126.8 127.8,9.8 106.7,108.9 	"/>
	<polygon class="st0" points="226.9,281 347.1,108.9 326,9.8 407.2,126.8 	"/>
	
		<linearGradient id="SVGID_1_" gradientUnits="userSpaceOnUse" x1="148.0452" y1="78.185" x2="258.4726" y2="188.6124" gradientTransform="matrix(1 0 0 -1 0 291.8898)">
		<stop  offset="0" style="stop-color:#4B7A7F"/>
		<stop  offset="0.366" style="stop-color:#DFF7F8"/>
	</linearGradient>
	<polyline class="st1" points="226.9,281 106.7,108.9 194.4,145.4 226.9,99.2 	"/>
	
		<linearGradient id="SVGID_2_" gradientUnits="userSpaceOnUse" x1="4096.687" y1="78.1668" x2="4207.1143" y2="188.5941" gradientTransform="matrix(-1 0 0 -1 4402.46 291.8898)">
		<stop  offset="0" style="stop-color:#4B7A7F"/>
		<stop  offset="0.366" style="stop-color:#DFF7F8"/>
	</linearGradient>
	<polyline class="st2" points="226.9,281 347.1,108.9 259.4,145.4 226.9,99.2 	"/>
</g>
<g>
	<path class="st0" d="M532.9,126.4c-6.6-4.2-14.2-6.3-22.8-6.3c-5.2,0-10.2,1.1-15.1,3.2s-9,4.8-12.4,8.1c-1.3,1.3-2.4,2.6-3.3,3.9
		v-13.6h-18.8v134.8h18.8v-52.3c0.6,0.7,1.3,1.4,2,2.1c3.6,3.5,8,6.4,13.2,8.6c5.2,2.2,10.6,3.3,16.1,3.3c8.3,0,15.8-2.1,22.4-6.4
		c6.6-4.3,11.8-10.1,15.6-17.5s5.7-15.8,5.7-25.2c0-9.5-1.9-18-5.8-25.3C544.7,136.4,539.5,130.6,532.9,126.4z M532.7,185.6
		c-2.5,4.8-6,8.6-10.3,11.4c-4.3,2.8-9.3,4.2-14.8,4.2c-5.7,0-10.7-1.4-15-4.2s-7.8-6.6-10.3-11.4c-2.5-4.8-3.8-10.3-3.8-16.5
		s1.3-11.6,3.8-16.5c2.5-4.8,6-8.6,10.3-11.3s9.3-4.1,15-4.1s10.7,1.4,15,4.2c4.3,2.8,7.7,6.5,10.2,11.3s3.7,10.2,3.7,16.4
		S535.2,180.8,532.7,185.6z"/>
	<path class="st0" d="M642.1,126.1c-7.3-4.3-15.5-6.4-24.7-6.4c-9.3,0-17.6,2.1-24.9,6.4c-7.3,4.3-13.1,10.1-17.3,17.6
		c-4.2,7.4-6.3,15.9-6.3,25.4s2.1,18,6.3,25.4s10,13.3,17.3,17.6s15.6,6.4,24.9,6.4c9.2,0,17.4-2.1,24.7-6.4
		c7.3-4.3,13.1-10.1,17.3-17.6c4.2-7.4,6.3-15.9,6.3-25.4s-2.1-18-6.3-25.4C655.1,136.3,649.4,130.4,642.1,126.1z M643,185.8
		c-2.5,4.9-6,8.7-10.5,11.6c-4.5,2.8-9.5,4.3-15.2,4.3s-10.8-1.4-15.3-4.3c-4.5-2.8-8-6.7-10.6-11.6c-2.5-4.9-3.7-10.4-3.6-16.6
		c-0.1-6.2,1.1-11.7,3.6-16.6s6.1-8.7,10.6-11.6c4.5-2.8,9.6-4.3,15.3-4.3s10.7,1.4,15.2,4.2c4.5,2.8,8,6.6,10.5,11.5
		c2.5,4.9,3.7,10.5,3.6,16.7C646.8,175.3,645.6,180.8,643,185.8z"/>
	<rect x="686.3" y="82.8" class="st0" width="18.6" height="133.9"/>
	<path class="st0" d="M799.2,136.3c-1.9-3.1-4.3-5.9-7.1-8.3c-3.1-2.6-6.7-4.6-10.8-6.1s-8.6-2.2-13.6-2.2c-8.3,0-15.8,2.1-22.5,6.3
		s-12,10-15.9,17.5c-3.9,7.4-5.9,15.9-5.9,25.4c0,9.4,1.9,17.9,5.8,25.3c3.9,7.5,9,13.4,15.5,17.7s13.6,6.5,21.4,6.5
		c4.6,0,9-0.7,13.1-2.2c4.2-1.4,8-3.4,11.4-5.8c3.4-2.4,6.3-5.2,8.5-8.2c0-0.1,0.1-0.1,0.1-0.2v14.5H818v-95h-18.8V136.3z
		 M796.2,185.8c-2.5,4.9-5.9,8.7-10.2,11.5s-9.4,4.2-15,4.2s-10.5-1.4-14.7-4.2c-4.3-2.8-7.7-6.6-10.1-11.5
		c-2.5-4.9-3.7-10.5-3.7-16.7s1.2-11.6,3.7-16.5c2.5-4.8,5.9-8.6,10.1-11.4c4.3-2.8,9.2-4.2,14.7-4.2c5.7,0,10.7,1.4,15,4.2
		c4.3,2.8,7.8,6.6,10.2,11.4c2.5,4.8,3.7,10.3,3.7,16.5S798.7,180.8,796.2,185.8z"/>
	<path class="st0" d="M891.8,119.7c-4.5,0-8.8,1.1-12.9,3.3c-4.2,2.2-7.8,5.1-11,8.9c-2.1,2.4-3.7,5-5,7.8v-17.9h-18.8v95h18.8
		v-52.5c0-3.5,0.7-6.7,2-9.7c1.3-2.9,3.1-5.5,5.3-7.8c2.2-2.2,4.8-4,7.8-5.2s6.1-1.9,9.3-1.9c1.7,0,3.4,0.2,5.2,0.6
		c1.7,0.4,3.3,0.9,4.8,1.5l4.9-20.3c-1.1-0.5-2.6-0.9-4.4-1.3C895.8,119.9,893.9,119.7,891.8,119.7z"/>
	<path class="st0" d="M929.1,77.2c-3.9,0-6.9,1.1-9.1,3.3c-2.2,2.2-3.3,5-3.3,8.5c0,3.7,1.1,6.6,3.3,8.7s5.2,3.1,9.2,3.1
		c3.9,0,6.9-1.1,9.1-3.3c2.2-2.2,3.3-5,3.3-8.5c0-3.7-1.1-6.6-3.3-8.7C936.2,78.2,933.1,77.2,929.1,77.2z"/>
	<rect x="920.1" y="121.7" class="st0" width="18.6" height="95"/>
	<path class="st0" d="M1031.9,180.1c-1-3-2.7-5.7-5.1-8c-2.3-2.4-5.4-4.6-9.3-6.4c-3.9-1.9-8.9-3.6-14.9-5.2c-4.1-1-7.5-2-10.1-3.1
		c-2.7-1.1-4.6-2.1-6-3.1c-1.2-1-2.1-2.1-2.8-3.5c-0.7-1.4-1.1-2.9-1.2-4.4c0-1.8,0.4-3.4,1.1-4.9c0.7-1.5,1.8-2.7,3.2-3.6
		c1.4-1,3.1-1.7,5.2-2.2c2-0.5,4.3-0.7,6.9-0.7c2.3,0,4.8,0.5,7.6,1.4c2.8,1,5.5,2.3,8.2,4.1c2.7,1.8,5.2,3.8,7.5,6.1l10.7-11.8
		c-2.5-3.1-5.7-5.9-9.4-8.1c-3.7-2.3-7.8-4-12.2-5.2s-8.8-1.8-13.3-1.8c-4.7,0-9.1,0.7-13.3,2s-7.8,3.2-10.9,5.7
		c-3.1,2.5-5.5,5.4-7.2,8.7c-1.7,3.3-2.6,7-2.6,11c0,3.3,0.4,6.2,1.3,9c0.8,2.7,2.2,5.2,4,7.5c2.4,2.9,5.9,5.5,10.3,7.8
		c4.5,2.3,10.2,4.3,17.2,6.2c4.1,1.1,7.4,2.1,10,3.2c2.6,1,4.5,2,5.7,2.8c2.3,1.9,3.4,4.5,3.4,7.6c0,1.8-0.4,3.5-1.1,5
		c-0.7,1.5-1.8,2.8-3.2,3.9c-1.4,1.1-3,1.9-4.9,2.4s-3.9,0.8-6.1,0.8c-5.4,0-10.3-0.9-14.6-2.8c-4.3-1.9-8.2-4.9-11.9-9.1
		l-12.7,10.9c4.2,5.4,9.5,9.5,15.9,12.3s13.6,4.2,21.5,4.2c6.4,0,12.2-1.2,17.4-3.6c5.2-2.4,9.3-5.8,12.4-10
		c3.1-4.3,4.6-9.1,4.6-14.6C1033.3,186.6,1032.8,183.3,1031.9,180.1z"/>
</g>
</svg>
